# xmcd CD database file
#
# Track frame offsets:
#	150
#	19422
#	37897
#	55565
#	75300
#	91732
#	106920
#	120942
#	141002
#	166150
#	180077
#	198337
#	215337
#
# Disc length: 3087 seconds
#
# Revision: 0
# Processed by: cddbd v1.5.2PL0 Copyright (c) Steve Scherf et al.
# Submitted via: CDex 1.70beta2
#
DISCID=8d0c0d0d
DTITLE=Jack Tempchin - Peaceful Easy Feeling (The Best Of)
DYEAR=1997
DGENRE=Country
TTITLE0=After The Rain
TTITLE1=Blue Flame
TTITLE2=Streets Of L. A.
TTITLE3=Slow Dancing
TTITLE4=I'm Daddy Now
TTITLE5=Same Old Thing
TTITLE6=No Way
TTITLE7=Who's Been Sleeping In My Bed?
TTITLE8=Trust Somebody
TTITLE9=My Old Friends
TTITLE10=Lover's Moon
TTITLE11=Already Gone
TTITLE12=Peaceful Easy Feeling
EXTD=YEAR: 1997
EXTT0=
EXTT1=
EXTT2=
EXTT3=
EXTT4=
EXTT5=
EXTT6=
EXTT7=
EXTT8=
EXTT9=
EXTT10=
EXTT11=
EXTT12=
PLAYORDER=
